<svg version="1.2" xmlns="http://www.w3.org/2000/svg" viewBox="0 0 500 100" width="500" height="100">
	<title>f7060b93bfffed5cb470fc3029482207-svg</title>
	<defs>
		<linearGradient id="g1" x2="1" gradientUnits="userSpaceOnUse" gradientTransform="matrix(-62.38,52.449,-59.289,-70.515,77.243,24.627)">
			<stop offset="0" stop-color="#55ffa4"/>
			<stop offset="1" stop-color="#00a8ff"/>
		</linearGradient>
		<linearGradient id="g2" x2="1" gradientUnits="userSpaceOnUse" gradientTransform="matrix(0,-47,378,0,192,1)">
			<stop offset="0" stop-color="#00a8ff"/>
			<stop offset="1" stop-color="#55ffa4"/>
		</linearGradient>
	</defs>
	<style>
		tspan { white-space:pre } 
		.s0 { fill: url(#g1) } 
		.t1 { font-size: 60px;fill:  url(#g2);font-weight: 400;font-family: "DejaVuSerif", "DejaVu Serif" } 
	</style>
	<g id="color_index_g">
		<path id="Layer" fill-rule="evenodd" class="s0" d="m91.5 47.8c0 7.2-6 13.2-13.3 13.2h-14.2v3.4c-5.8-2.9-11.8-7.1-17.3-12.6-5.5-5.5-9.7-11.5-12.6-17.3h3.4v-14.2c0-7.3 6-13.3 13.3-13.3 7.2 0 13.2 6 13.2 13.3v14.2h14.2c7.3 0 13.3 6 13.3 13.3zm-7.7 21.9c-4.4 4.4-11.7 5.1-19.8 2.6v2.9c0 7.3-6 13.3-13.2 13.3-7.3 0-13.3-6-13.3-13.3v-14.2h-14.2c-7.3 0-13.3-6-13.3-13.2 0-7.3 6-13.3 13.3-13.3h2.9c-2.5-8.1-1.8-15.4 2.6-19.8-4.3 9.7 1.8 26.2 15.3 39.7 13.5 13.5 30 19.6 39.7 15.3z"/>
		<text id="HealthTrack" style="transform: matrix(1,0,0,1,99,72)" >
			<tspan x="0" y="0" class="t1">H</tspan><tspan  y="0" class="t1">e</tspan><tspan  y="0" class="t1">a</tspan><tspan  y="0" class="t1">l</tspan><tspan  y="0" class="t1">t</tspan><tspan  y="0" class="t1">h</tspan><tspan  y="0" class="t1">T</tspan><tspan  y="0" class="t1">r</tspan><tspan  y="0" class="t1">a</tspan><tspan  y="0" class="t1">c</tspan><tspan  y="0" class="t1">k
</tspan>
		</text>
	</g>
</svg>